<?xml version="1.0" standalone="no"?><!DOCTYPE svg PUBLIC "-//W3C//DTD SVG 1.1//EN" "http://www.w3.org/Graphics/SVG/1.1/DTD/svg11.dtd"><svg class="icon" width="200px" height="200.00px" viewBox="0 0 1024 1024" version="1.1" xmlns="http://www.w3.org/2000/svg"><path d="M595.105185 606.814815H430.791111c-171.235556 10.42963-323.697778 143.407407-323.697778 304.734815v6.4h809.813334v-4.408889c0-161.185185-150.992593-296.059259-321.801482-306.725926z" fill="#FFCEAA" /><path d="M430.696296 525.89037h164.361482v234.808889H430.696296z" fill="#FFCEAA" /><path d="M430.127407 518.4l0.711112 59.354074c20.574815 26.453333 67.792593 44.894815 122.927407 44.894815a229.925926 229.925926 0 0 0 41.386667-5.546667l-0.237037-107.946666H439.561481a75.851852 75.851852 0 0 0-9.434074 9.244444zM349.108148 354.322963c-15.028148 1.517037-29.914074 10.619259-27.448889 41.623704 0 0-2.133333 43.851852 36.740741 55.656296a259.176296 259.176296 0 0 1-10.42963-73.102222c0-8.201481 0.426667-16.260741 1.137778-24.177778zM676.266667 354.74963c0.900741 9.054815 1.422222 18.251852 1.422222 27.591111a267.235556 267.235556 0 0 1-9.007408 69.262222c37.404444-12.420741 35.318519-55.182222 35.318519-55.182222 2.37037-31.383704-12.61037-40.248889-27.733333-41.671111z" fill="#FFB888" /><path d="M678.305185 340.100741c-10.808889-118.186667-87.561481-169.813333-167.111111-169.813334-80.308148 0-154.358519 50.346667-164.02963 169.860741-0.663704 8.438519-1.042963 17.019259-1.042963 25.694815a303.407407 303.407407 0 0 0 9.955556 77.653333c24.462222 92.207407 90.358519 156.681481 158.53037 156.681482 69.072593 0 133.641481-63.668148 156.444445-157.155556a312.888889 312.888889 0 0 0 8.675555-73.576296c-0.047407-9.955556-0.568889-19.721481-1.422222-29.345185z" fill="#FFCEAA" /><path d="M407.134815 343.22963a46.411852 46.411852 0 0 1 17.208889-12.894815 53.902222 53.902222 0 0 1 21.522963-4.740741 48.924444 48.924444 0 0 1 21.617777 4.740741 46.554074 46.554074 0 0 1 17.114075 13.037037c-3.555556-0.948148-6.58963-2.465185-9.908149-3.365926a90.927407 90.927407 0 0 0-9.481481-2.654815 74.951111 74.951111 0 0 0-18.962963-2.085926 89.505185 89.505185 0 0 0-19.247407 2.228148 168.675556 168.675556 0 0 0-19.863704 5.736297zM541.155556 343.22963a46.601481 46.601481 0 0 1 17.256296-12.894815 53.475556 53.475556 0 0 1 21.475555-4.740741 48.924444 48.924444 0 0 1 21.617778 4.740741 46.743704 46.743704 0 0 1 17.161482 13.037037c-3.555556-0.948148-6.637037-2.465185-9.908148-3.365926a97.659259 97.659259 0 0 0-9.481482-2.654815 75.093333 75.093333 0 0 0-18.962963-2.085926 89.078519 89.078519 0 0 0-18.962963 2.228148 169.339259 169.339259 0 0 0-20.195555 5.736297z" fill="#54393A" /><path d="M512 462.980741a23.703704 23.703704 0 0 1-12.183704-2.93926 16.308148 16.308148 0 0 1-5.12-20.859259c8.722963-18.299259 7.111111-36.551111 5.404445-55.845926v-2.749629l4.74074-0.426667v2.74963c1.754074 19.958519 3.413333 38.874074-5.878518 58.311111a11.70963 11.70963 0 0 0 3.318518 14.743703c6.637037 4.077037 18.678519 1.896296 27.022223-1.232592l1.659259 4.456296a58.974815 58.974815 0 0 1-18.962963 3.792593z" fill="#E6A996" /><path d="M436.717037 395.662222a24.651852 9.14963 90 1 0 18.299259 0 24.651852 9.14963 90 1 0-18.299259 0Z" fill="#54393A" /><path d="M441.268148 380.965926a2.275556 1.896296 0 1 0 4.551111 0 2.275556 1.896296 0 1 0-4.551111 0Z" fill="#FFFFFF" /><path d="M570.737778 395.662222a24.651852 9.14963 90 1 0 18.299259 0 24.651852 9.14963 90 1 0-18.299259 0Z" fill="#54393A" /><path d="M575.288889 380.965926a2.275556 1.896296 0 1 0 4.551111 0 2.275556 1.896296 0 1 0-4.551111 0Z" fill="#FFFFFF" /><path d="M505.268148 526.459259a51.484444 51.484444 0 0 1-22.660741-4.74074l2.275556-4.171852c0.995556 0.521481 24.367407 12.705185 55.893333-6.637037l2.512593 4.029629a72.106667 72.106667 0 0 1-38.020741 11.52z" fill="#E6A996" /><path d="M768 663.419259l0.568889-1.042963a372.242963 372.242963 0 0 0-164.171852-55.324444l-0.331852 0.379259h-1.232592l-82.583704 159.146667-107.140741-158.482963a372.622222 372.622222 0 0 0-155.638518 54.376296c-88.794074 55.466667-150.328889 146.441481-150.328889 248.936296v6.4h809.765926v-4.408888c0-102.257778-60.918519-193.896296-148.906667-249.97926z" fill="#8BC8C8" /><path d="M421.641481 607.099259a347.496296 347.496296 0 0 0-74.334814 14.222222l83.294814 148.100741 81.066667-61.392592zM604.302222 606.814815a351.194074 351.194074 0 0 1 74.334815 14.222222l-83.294815 148.148148-81.066666-61.392592z" fill="#FFFFFF" /><path d="M509.44 709.12L473.031111 734.814815l29.155556 29.202963h23.703703l28.444445-28.207408-37.594074-26.69037a6.115556 6.115556 0 0 0-7.300741 0z" fill="#FFFFFF" /><path d="M547.792593 917.807407h-68.551112l18.962963-168.58074h30.625186l18.962963 168.58074z" fill="#FFFFFF" /><path d="M534.139259 178.251852c13.842963 1.943704 26.595556 9.481481 30.672593 23.466667a40.485926 40.485926 0 0 1-3.176296 28.444444c-9.481481 19.579259-28.16 32-43.804445 46.032593l-1.848889 1.611851-8.722963 7.537778-8.628148-7.585185-4.503704-4.02963c-17.73037-15.881481-43.045926-32.663704-45.179259-58.832592-1.611852-19.958519 13.937778-33.185185 32.426667-35.934815a264.580741 264.580741 0 0 1 28.776296-1.327407 135.016296 135.016296 0 0 1 23.988148 0.616296z" fill="#39334C" /><path d="M327.537778 47.407407v8.675556H243.484444V47.407407zM317.62963 72.106667h9.481481v61.25037h-9.481481v-4.740741H243.863704V72.722963h9.481481v47.407407H317.62963zM309.096296 66.37037v44.894815H261.262222V66.37037z m-39.964444 18.725926h11.804444v-11.188148h-11.804444z m0 18.536297h11.804444v-11.377778h-11.804444z m31.81037-29.534815H289.185185v10.998518h11.851852z m0 18.346666H289.185185v11.188149h11.851852zM397.748148 57.6c-2.085926 3.413333-4.219259 6.968889-6.637037 10.382222v65.564445h-10.145185V80.592593a125.297778 125.297778 0 0 1-34.37037 27.164444A50.820741 50.820741 0 0 0 340.148148 99.555556a111.691852 111.691852 0 0 0 45.321482-41.908149h-42.666667v-9.481481h86.376296v9.481481z m0.805926 15.312593A237.037037 237.037037 0 0 1 432.497778 99.555556l-7.86963 7.253333a225.232593 225.232593 0 0 0-33.185185-27.875556zM489.718519 58.026667v17.019259l1.706666-2.038519a234.24 234.24 0 0 1 35.034074 20.574815l-6.826666 8.533334a221.108148 221.108148 0 0 0-29.914074-19.342223v50.678519h-9.955556V58.026667h-37.357037v-9.481482h88.888889v9.481482zM584.722963 91.638519a199.822222 199.822222 0 0 1-20.574815 27.306666l45.416296-2.939259a196.740741 196.740741 0 0 0-12.325925-16.118519l8.485925-3.792592a167.632593 167.632593 0 0 1 23.182223 31.905185l-9.244445 4.740741a84.622222 84.622222 0 0 0-4.740741-8.580741c-52.574815 4.266667-58.69037 4.740741-63.051851 6.257778a58.595556 58.595556 0 0 0-3.223704-9.244445 17.92 17.92 0 0 0 7.49037-6.257777 144.971852 144.971852 0 0 0 16.592593-23.703704h-30.198519v-9.481482h39.964445v-16.355555h-32.094815v-9.481482h32.094815V41.102222H592.592593v14.885926h33.185185v9.481482h-33.185185v16.924444h40.391111v9.481482zM728.225185 53.57037a151.703704 151.703704 0 0 1-34.607407 27.306667v41.386667c0 5.736296-1.517037 8.533333-5.878519 9.86074a71.111111 71.111111 0 0 1-21.143703 1.611852 30.767407 30.767407 0 0 0-3.697778-9.481481c7.822222 0.331852 15.691852 0.331852 18.014815 0.237037s2.891852-0.616296 2.891851-2.417778v-45.937778a121.694815 121.694815 0 0 0 25.694815-18.204444h-61.629629v-9.481482h70.684444l2.133333-0.474074zM756.242963 118.755556a7.585185 7.585185 0 1 1 7.585185 7.632592 7.395556 7.395556 0 0 1-7.585185-7.632592z m1.137778-55.087408l-0.331852-13.321481h13.511111l-0.284444 13.321481-2.275556 37.025185h-8.248889z"  /></svg>