<?xml version="1.0" standalone="no"?><!DOCTYPE svg PUBLIC "-//W3C//DTD SVG 1.1//EN" "http://www.w3.org/Graphics/SVG/1.1/DTD/svg11.dtd"><svg class="icon" width="200px" height="200.00px" viewBox="0 0 1024 1024" version="1.1" xmlns="http://www.w3.org/2000/svg"><path d="M595.105185 606.814815H430.791111c-171.235556 10.42963-323.697778 143.407407-323.697778 304.734815v6.4h809.813334v-4.408889c0-161.185185-150.992593-296.059259-321.801482-306.725926z" fill="#FFCEAA" /><path d="M430.696296 525.89037h164.361482v234.808889H430.696296z" fill="#FFCEAA" /><path d="M430.127407 518.4l0.711112 59.354074c20.574815 26.453333 67.792593 44.894815 122.927407 44.894815a229.925926 229.925926 0 0 0 41.386667-5.546667l-0.237037-107.946666H439.561481a75.851852 75.851852 0 0 0-9.434074 9.244444zM349.108148 354.322963c-15.028148 1.517037-29.914074 10.619259-27.448889 41.623704 0 0-2.133333 43.851852 36.740741 55.656296a259.176296 259.176296 0 0 1-10.42963-73.102222c0-8.201481 0.426667-16.260741 1.137778-24.177778zM676.266667 354.74963c0.900741 9.054815 1.422222 18.251852 1.422222 27.591111a267.235556 267.235556 0 0 1-9.007408 69.262222c37.404444-12.420741 35.318519-55.182222 35.318519-55.182222 2.37037-31.383704-12.61037-40.248889-27.733333-41.671111z" fill="#FFB888" /><path d="M678.305185 340.100741c-10.808889-118.186667-87.561481-169.813333-167.111111-169.813334-80.308148 0-154.358519 50.346667-164.02963 169.860741-0.663704 8.438519-1.042963 17.019259-1.042963 25.694815a303.407407 303.407407 0 0 0 9.955556 77.653333c24.462222 92.207407 90.358519 156.681481 158.53037 156.681482 69.072593 0 133.641481-63.668148 156.444445-157.155556a312.888889 312.888889 0 0 0 8.675555-73.576296c-0.047407-9.955556-0.568889-19.721481-1.422222-29.345185z" fill="#FFCEAA" /><path d="M407.134815 343.22963a46.411852 46.411852 0 0 1 17.208889-12.894815 53.902222 53.902222 0 0 1 21.522963-4.740741 48.924444 48.924444 0 0 1 21.617777 4.740741 46.554074 46.554074 0 0 1 17.114075 13.037037c-3.555556-0.948148-6.58963-2.465185-9.908149-3.365926a90.927407 90.927407 0 0 0-9.481481-2.654815 74.951111 74.951111 0 0 0-18.962963-2.085926 89.505185 89.505185 0 0 0-19.247407 2.228148 168.675556 168.675556 0 0 0-19.863704 5.736297zM541.155556 343.22963a46.601481 46.601481 0 0 1 17.256296-12.894815 53.475556 53.475556 0 0 1 21.475555-4.740741 48.924444 48.924444 0 0 1 21.617778 4.740741 46.743704 46.743704 0 0 1 17.161482 13.037037c-3.555556-0.948148-6.637037-2.465185-9.908148-3.365926a97.659259 97.659259 0 0 0-9.481482-2.654815 75.093333 75.093333 0 0 0-18.962963-2.085926 89.078519 89.078519 0 0 0-18.962963 2.228148 169.339259 169.339259 0 0 0-20.195555 5.736297z" fill="#54393A" /><path d="M512 462.980741a23.703704 23.703704 0 0 1-12.136296-2.93926 16.355556 16.355556 0 0 1-5.12-20.859259c8.722963-18.299259 7.111111-36.503704 5.404444-55.845926v-2.749629l4.740741-0.426667v2.74963c1.754074 20.005926 3.413333 38.874074-5.878519 58.311111a11.70963 11.70963 0 0 0 3.318519 14.743703c6.58963 4.077037 18.678519 1.896296 27.022222-1.232592l1.659259 4.456296a59.022222 59.022222 0 0 1-19.01037 3.792593z" fill="#E6A996" /><path d="M436.717037 395.662222a24.651852 9.14963 90 1 0 18.299259 0 24.651852 9.14963 90 1 0-18.299259 0Z" fill="#54393A" /><path d="M441.268148 380.965926a2.275556 1.896296 0 1 0 4.551111 0 2.275556 1.896296 0 1 0-4.551111 0Z" fill="#FFFFFF" /><path d="M570.737778 395.662222a24.651852 9.14963 90 1 0 18.299259 0 24.651852 9.14963 90 1 0-18.299259 0Z" fill="#54393A" /><path d="M575.288889 380.965926a2.275556 1.896296 0 1 0 4.551111 0 2.275556 1.896296 0 1 0-4.551111 0Z" fill="#FFFFFF" /><path d="M505.268148 526.459259a51.484444 51.484444 0 0 1-22.660741-4.74074l2.275556-4.171852c0.995556 0.521481 24.367407 12.705185 55.893333-6.637037l2.512593 4.029629a72.106667 72.106667 0 0 1-38.020741 11.52z" fill="#E6A996" /><path d="M254.72 117.001481h-22.139259v16.545186H222.814815v-16.545186h-24.888889c-2.607407 6.352593-9.481481 12.420741-25.268148 16.734815a35.365926 35.365926 0 0 0-5.973334-6.968889c11.52-2.512593 17.445926-6.115556 20.337778-9.765926h-21.712592v-7.537777h24.651851v-7.632593h-12.894814v-37.925926h10.571852a55.371852 55.371852 0 0 0-4.408889-8.343704h-3.934815A68.02963 68.02963 0 0 1 170.666667 66.37037a55.893333 55.893333 0 0 0-7.537778-5.262222 55.087407 55.087407 0 0 0 15.075555-20.242963l8.675556 2.322963c-0.805926 1.801481-1.706667 3.413333-2.607407 5.262222H208.592593v7.348149a45.700741 45.700741 0 0 0 9.149629-14.933334L226.607407 42.666667c-0.711111 1.896296-1.611852 3.697778-2.512592 5.546666h30.008889v7.537778H237.037037a52.48 52.48 0 0 1 4.02963 5.546667l-6.162963 2.797037h9.481481v37.925926h-11.804444v7.632592h22.139259z m-68.171852-42.192592H234.666667v-4.740741H186.548148z m0 10.477037H234.666667V80.592593H186.548148z m0 10.666667H234.666667v-5.025186H186.548148z m6.257778-40.154074a63.573333 63.573333 0 0 1 3.318518 6.02074l-6.494814 2.322963h20.954074a52.906667 52.906667 0 0 0-7.253334-3.934815 24.367407 24.367407 0 0 0 4.740741-4.408888zM222.814815 109.463704v-7.632593h-23.703704v7.632593z m-3.460741-53.665185a47.407407 47.407407 0 0 1-7.016296 8.343703h20.148148a55.561481 55.561481 0 0 0-6.068148-8.343703zM350.482963 53.57037a150.565926 150.565926 0 0 1-34.607407 27.306667v41.386667c0 5.736296-1.517037 8.533333-5.831112 9.86074a71.395556 71.395556 0 0 1-21.143703 1.611852 32.142222 32.142222 0 0 0-3.745185-9.481481c7.86963 0.331852 15.691852 0.331852 18.014814 0.237037s2.939259-0.616296 2.93926-2.417778v-45.937778A121.884444 121.884444 0 0 0 331.851852 57.931852H270.222222v-9.481482h70.731852l2.085926-0.521481zM369.256296 131.223704c7.774815-2.844444 12.278519-7.442963 12.8-13.605926a6.494815 6.494815 0 0 1-1.422222 0 7.822222 7.822222 0 0 1-8.438518-7.964445 7.917037 7.917037 0 0 1 8.533333-8.011852c6.352593 0 9.481481 4.740741 9.481481 12.562963a24.367407 24.367407 0 0 1-18.536296 23.466667zM432.497778 99.555556a86.518519 86.518519 0 0 1-10.050371 25.268148 57.78963 57.78963 0 0 0-6.637037-4.456297 61.62963 61.62963 0 0 0 8.865186-22.518518z m29.819259-37.925926h-45.511111v-8.533334h20.148148a85.333333 85.333333 0 0 0-3.934815-10.192592l8.580741-1.896297a102.4 102.4 0 0 1 5.025185 12.088889h15.691852z m-17.493333 32.094814v30.814815c0 3.84-0.616296 6.162963-3.223704 7.348148a27.306667 27.306667 0 0 1-11.52 1.422223 26.121481 26.121481 0 0 0-2.607407-7.727408h7.537777c0.995556 0 1.422222-0.331852 1.422223-1.327407v-30.814815H421.925926v-25.268148h36.740741v25.268148z m-14.933334-7.348148h20.053334v-10.856296h-20.053334z m24.462223 10.477037a77.558519 77.558519 0 0 1 7.585185 17.635556l-7.158519 3.223704A69.925926 69.925926 0 0 0 447.715556 99.555556z m43.425185 27.496297a4.408889 4.408889 0 0 0 2.417778-0.474074c0.568889 0 0.995556-1.137778 1.28-2.74963a82.536296 82.536296 0 0 0 0.426666-10.951111 21.428148 21.428148 0 0 0 7.348148 3.934815 75.377778 75.377778 0 0 1-1.232592 11.994074 7.442963 7.442963 0 0 1-3.508148 4.314074 14.222222 14.222222 0 0 1-5.831111 1.09037h-6.352593a10.903704 10.903704 0 0 1-6.542222-1.991111c-1.611852-1.422222-2.322963-3.223704-2.322963-9.860741V85.333333c-2.702222 18.962963-8.580741 36.361481-21.428148 48.355556A30.293333 30.293333 0 0 0 455.111111 128c14.222222-12.515556 18.962963-32.237037 20.764445-52.66963h-12.325926v-8.438518h12.847407c0.521481-8.675556 0.521481-17.351111 0.521482-25.505185h8.865185c0 8.154074 0 16.82963-0.711111 25.505185H507.259259v8.438518h-22.613333c0 2.228148-0.521481 4.408889-0.711111 6.637037h7.632592v38.352593c0 1.943704 0 3.128889 0.616297 3.555556a3.982222 3.982222 0 0 0 1.991111 0.474074z m0.568889-60.017778a75.045926 75.045926 0 0 0-10.050371-15.407408l6.162963-3.508148a69.973333 69.973333 0 0 1 10.42963 14.696297zM538.358519 113.777778c2.038519 0.900741 4.266667 2.654815 7.585185 4.456296 6.447407 3.413333 15.407407 4.02963 26.168889 4.02963a328.912593 328.912593 0 0 0 36.645926-2.133334 44.847407 44.847407 0 0 0-2.891852 10.477037c-7.49037 0.521481-23.988148 0.995556-34.038519 0.995556a58.927407 58.927407 0 0 1-27.496296-4.740741c-4.266667-2.322963-7.585185-5.072593-9.765926-5.072592-3.223704 0-7.964444 5.641481-12.515556 11.188148l-6.542222-9.14963a47.407407 47.407407 0 0 1 13.890371-9.860741V87.22963h-12.183704v-8.675556h21.143704z m-6.637038-47.407408a84.48 84.48 0 0 0-13.89037-16.023703l7.348148-5.025186a86.897778 86.897778 0 0 1 14.506667 15.407408z m64.663704 49.635556a253.534815 253.534815 0 0 0-20.764444-18.10963 77.700741 77.700741 0 0 1-28.444445 18.394074 44.847407 44.847407 0 0 0-5.546666-8.106666 70.020741 70.020741 0 0 0 27.022222-15.928889c-7.964444-6.257778-16.355556-12.278519-23.703704-17.445926l6.352593-5.641482c7.063704 4.977778 15.122963 10.571852 23.087407 16.355556a68.645926 68.645926 0 0 0 10.334815-20.574815h-42.666667v-8.77037h28.16a78.127407 78.127407 0 0 0-6.115555-12.752593l8.96-2.939259a87.277037 87.277037 0 0 1 7.253333 14.222222l-3.934815 1.28H606.814815v8.96h-12.420741a86.945185 86.945185 0 0 1-12.847407 26.074074c8.628148 6.542222 16.687407 13.131852 22.139259 18.251852zM645.736296 97.46963a140.278519 140.278519 0 0 0-6.305185-12.98963v49.066667H630.518519v-40.912593a90.500741 90.500741 0 0 1-9.481482 21.57037 65.564444 65.564444 0 0 0-4.740741-9.244444 102.068148 102.068148 0 0 0 14.222223-35.081481v-0.995556h-12.183704V60.207407H630.518519v-18.962963h9.007407v18.962963h9.955555v8.675556h-10.05037v3.934815c2.702222 3.84 10.334815 15.122963 12.041482 18.014815z m62.435556 12.705185h-23.703704v23.371852h-9.481481v-23.371852h-25.173334v-8.675556h25.173334v-12.278518h-18.962963V80.592593h18.962963v-11.89926h-21.94963v-8.58074h11.70963a83.057778 83.057778 0 0 0-7.774815-15.502223l8.248889-2.986666a68.93037 68.93037 0 0 1 8.391111 15.691852l-7.158519 2.797037h19.2a131.697778 131.697778 0 0 0 8.391111-18.962963l9.481482 2.986666c-2.56 5.546667-5.546667 11.377778-8.201482 16.213334H706.37037v8.58074h-22.044444V80.592593h18.962963v8.438518h-18.962963v12.278519h23.703704zM749.037037 107.377778h-18.962963v9.481481h-8.580741v-66.37037H749.037037z m-18.962963-48.355556v39.68h10.666667v-39.68zM794.927407 123.259259c5.404444 0 6.447407-2.607407 7.253334-13.511111a28.823704 28.823704 0 0 0 8.533333 3.555556c-1.422222 13.89037-4.219259 18.536296-15.217778 18.536296H772.740741c-12.088889 0-15.786667-2.939259-15.786667-15.644444V47.407407h49.825185v53.522963h-9.149629V94.814815h-31.525926v21.428148c0 5.973333 1.09037 7.063704 7.348148 7.063704z m-28.918518-67.176296v30.245926H777.481481v-30.245926z m31.525926 0h-11.804445v30.245926h11.804445zM831.81037 118.518519a7.537778 7.537778 0 1 1 7.537778 7.68 7.395556 7.395556 0 0 1-7.537778-7.68z m1.090371-55.04l-0.284445-13.321482h13.463704l-0.284444 13.321482-2.322963 37.025185h-8.248889z"  /></svg>